<?xml version="1.0" encoding="UTF-8" standalone="no"?>
<!-- Created with Inkscape (http://www.inkscape.org/) -->

<svg
   xmlns:dc="http://purl.org/dc/elements/1.1/"
   xmlns:cc="http://creativecommons.org/ns#"
   xmlns:rdf="http://www.w3.org/1999/02/22-rdf-syntax-ns#"
   xmlns:svg="http://www.w3.org/2000/svg"
   xmlns="http://www.w3.org/2000/svg"
   xmlns:xlink="http://www.w3.org/1999/xlink"
   xmlns:sodipodi="http://sodipodi.sourceforge.net/DTD/sodipodi-0.dtd"
   xmlns:inkscape="http://www.inkscape.org/namespaces/inkscape"
   width="48"
   height="48"
   id="svg2"
   version="1.1"
   inkscape:version="0.48.2 r9819"
   sodipodi:docname="gradient.svg"
   inkscape:export-filename="/home/umod47/_progs/svn/skirl/trunk/complex/gui/images/gradient.png"
   inkscape:export-xdpi="90"
   inkscape:export-ydpi="90">
  <defs
     id="defs4">
    <linearGradient
       id="linearGradient3007">
      <stop
         id="stop3785"
         offset="0"
         style="stop-color:#00ff00;stop-opacity:1;" />
      <stop
         style="stop-color:#000000;stop-opacity:1;"
         offset="1"
         id="stop3011" />
    </linearGradient>
    <radialGradient
       inkscape:collect="always"
       xlink:href="#linearGradient3007"
       id="radialGradient3783"
       cx="26.625134"
       cy="22.750885"
       fx="26.625134"
       fy="22.750885"
       r="23.199945"
       gradientTransform="matrix(1.0598541,1.0033892,-0.51714693,0.5462489,10.03368,-16.55509)"
       gradientUnits="userSpaceOnUse" />
  </defs>
  <sodipodi:namedview
     id="base"
     pagecolor="#ffffff"
     bordercolor="#666666"
     borderopacity="1.0"
     inkscape:pageopacity="0.0"
     inkscape:pageshadow="2"
     inkscape:zoom="15.839192"
     inkscape:cx="18.265116"
     inkscape:cy="24.131642"
     inkscape:document-units="px"
     inkscape:current-layer="layer1"
     showgrid="false"
     inkscape:window-width="1920"
     inkscape:window-height="1119"
     inkscape:window-x="0"
     inkscape:window-y="30"
     inkscape:window-maximized="1" />
  <metadata
     id="metadata7">
    <rdf:RDF>
      <cc:Work
         rdf:about="">
        <dc:format>image/svg+xml</dc:format>
        <dc:type
           rdf:resource="http://purl.org/dc/dcmitype/StillImage" />
        <dc:title></dc:title>
      </cc:Work>
    </rdf:RDF>
  </metadata>
  <g
     inkscape:label="Layer 1"
     inkscape:groupmode="layer"
     id="layer1"
     transform="translate(0,-1004.3622)">
    <rect
       style="fill:#000000;fill-opacity:1;stroke-width:0;stroke-miterlimit:4;stroke-dasharray:none"
       id="rect3787"
       width="49.181801"
       height="49.497475"
       x="-0.56821078"
       y="-0.48732227"
       transform="translate(0,1004.3622)" />
    <path
       style="fill:url(#radialGradient3783);stroke:#000000;stroke-width:0;stroke-linecap:butt;stroke-linejoin:miter;stroke-opacity:1;fill-opacity:1;stroke-miterlimit:4;stroke-dasharray:none"
       d="m 1.4520943,20.410209 c 1.4503228,-0.161147 0.088448,0.07826 0.7576144,-0.189404 0.1422508,-0.0569 0.3070458,-0.05363 0.4419417,-0.126269 0.1447191,-0.07793 0.2462621,-0.218473 0.3788072,-0.315673 0.1835659,-0.134615 0.4024472,-0.222794 0.5682109,-0.378807 0.1962539,-0.18471 0.314507,-0.440776 0.5050762,-0.631345 0.1905692,-0.19057 0.4218736,-0.335504 0.6313454,-0.505077 0.2324766,-0.188195 0.4589344,-0.383871 0.6944798,-0.56821 0.6258228,-0.489775 0.9026991,-0.619639 1.4520943,-1.199557 1.2749688,-1.3458 -0.1432721,0.08722 0.6313454,-1.010152 0.2645637,-0.374799 0.850813,-0.908937 1.1995561,-1.199556 0.161671,-0.134726 0.3672472,-0.219774 0.5050763,-0.378807 0.1419038,-0.163736 0.1856707,-0.394875 0.3156727,-0.568211 0.1877124,-0.250284 0.4220569,-0.461938 0.6313453,-0.69448 0.169525,-0.188361 0.331077,-0.383976 0.505076,-0.568211 0.183917,-0.194736 0.390991,-0.367361 0.568211,-0.568211 0.43898,-0.497511 0.678766,-1.088018 1.136422,-1.5783631 0.132386,-0.1418422 0.299762,-0.2467835 0.441941,-0.3788072 0.152666,-0.1417607 0.288858,-0.3006334 0.441942,-0.4419418 0.120777,-0.1114858 0.262583,-0.1994487 0.378807,-0.3156726 0.137196,-0.1371957 0.248293,-0.2983757 0.378808,-0.4419418 0.310761,-0.3418375 0.241163,-0.2134996 0.631345,-0.5682108 0.11011,-0.1001001 0.196625,-0.226387 0.315673,-0.3156727 0.123839,-0.09288 0.824397,-0.4573904 0.947018,-0.5050762 0.204775,-0.079635 0.421829,-0.1232407 0.631345,-0.1894036 0.190382,-0.060121 0.382137,-0.1170416 0.568211,-0.1894036 0.193174,-0.075123 0.369365,-0.1940542 0.568211,-0.2525382 0.162774,-0.047875 0.337715,-0.035241 0.505076,-0.063135 0.211696,-0.035283 0.419103,-0.094433 0.631345,-0.1262691 0.209158,-0.031374 0.428307,-0.00392 0.631346,-0.063135 0.307723,-0.089753 0.583292,-0.2674772 0.883883,-0.3788072 0.268422,-0.099416 0.547166,-0.1683588 0.820749,-0.2525382 0.04486,-0.013804 1.303331,-0.4031339 1.452094,-0.4419417 0.271681,-0.070873 0.550779,-0.1122693 0.820749,-0.1894036 0.319946,-0.091413 0.63394,-0.2029644 0.947018,-0.3156727 0.213262,-0.076774 0.409859,-0.2043888 0.631346,-0.2525381 0.268128,-0.058289 0.547305,-0.040348 0.820748,-0.063135 0.231645,-0.019304 0.463186,-0.040005 0.69448,-0.063135 0.189624,-0.018962 0.378808,-0.04209 0.568211,-0.063135 0.189404,-0.021045 0.379974,-0.033413 0.568211,-0.063134 0.21199,-0.033472 0.418042,-0.1025687 0.631345,-0.1262691 0.167329,-0.018592 0.336718,0 0.505077,0 0.189403,0 0.379176,0.011815 0.56821,0 0.14852,-0.00928 0.293389,-0.054396 0.441942,-0.063135 0.210085,-0.012358 0.420897,0 0.631345,0 0.399853,0 0.799705,0 1.199557,0 0.126269,0 0.252538,0 0.378807,0 0.126269,0 0.254006,-0.0192 0.378807,0 0.151427,0.023296 0.295194,0.082245 0.441942,0.1262691 0.06374,0.019123 0.131622,0.030117 0.189403,0.063135 0.09136,0.052206 0.16231,0.1352661 0.252539,0.1894036 0.608778,0.3652669 0.140298,0.035075 0.757614,0.3156726 0.111712,0.050778 0.211164,0.1250909 0.315673,0.1894036 0.457965,0.2818246 0.897864,0.5975238 1.388959,0.820749 0.306085,0.1391292 0.551608,0.1983988 0.883884,0.3156726 0.169556,0.059844 0.332187,0.1400068 0.505076,0.1894036 1.112649,0.3178997 -0.508166,-0.2746128 0.883884,0.1894036 0.917715,0.305905 0.109283,0.030766 0.631345,0.3788073 0.117463,0.078309 0.261344,0.1110948 0.378807,0.1894036 0.246563,0.1643752 0.485811,0.4226763 0.69448,0.6313453 0.06314,0.063134 0.126269,0.1262691 0.189404,0.1894036 0.06313,0.063135 0.141468,0.1140767 0.189403,0.1894036 0.125867,0.1977899 0.274051,0.6155484 0.441942,0.8207489 0.113078,0.1382067 0.264489,0.2416249 0.378807,0.3788073 0.280754,0.336905 0.206685,0.36512 0.441942,0.6944798 0.0346,0.048436 0.08816,0.080542 0.126269,0.1262691 0.01902,0.022828 0.286729,0.3744061 0.315673,0.4419421 0.06836,0.159508 0.07139,0.340441 0.126269,0.505076 0.03584,0.107514 0.09043,0.208158 0.126269,0.315672 0.179797,0.539393 0.0528,0.308212 0.252538,0.757615 0.03822,0.086 0.09132,0.165154 0.126269,0.252538 0.04943,0.12358 0.08078,0.253721 0.126269,0.378807 0.03873,0.106507 0.08418,0.210449 0.126269,0.315673 0.04209,0.105224 0.08418,0.210448 0.126269,0.315673 0.04209,0.105224 0.105996,0.20417 0.126269,0.315672 0.02259,0.124233 -0.01049,0.252975 0,0.378807 0.01063,0.127569 0.05332,0.251174 0.06314,0.378808 0.0113,0.14688 0,0.294627 0,0.441941 0,0.189404 0,0.378808 0,0.568211 0,0.589256 0,1.178512 0,1.767767 0,0.168359 0,0.336718 0,0.505076 0,0.168359 -0.02381,0.33841 0,0.505077 0.01882,0.131761 0.100166,0.248292 0.126269,0.378807 0.01651,0.08254 -0.01191,0.169205 0,0.252538 0.0094,0.06588 0.05372,0.123523 0.06313,0.189404 0.0119,0.08333 -0.01044,0.169008 0,0.252538 0.01076,0.0861 0.05355,0.166299 0.06313,0.252538 0.01162,0.104581 0,0.210448 0,0.315673 0,0.147314 0,0.294627 0,0.441941 0,0.147314 0,0.294628 0,0.441942 0,0.147314 -0.0087,0.294882 0,0.441942 0.01242,0.211133 0.05202,0.420139 0.06313,0.631345 0.01,0.189142 -0.01983,0.379848 0,0.568211 0.02247,0.213437 0.0928,0.419355 0.12627,0.631345 0.05944,0.376475 0.05152,0.762685 0.126269,1.136422 0.0261,0.130515 0.09399,0.249682 0.126269,0.378807 0.183161,0.732644 -0.0067,0.07272 0.06313,0.631345 0.01076,0.0861 0.05237,0.166439 0.06314,0.252539 0.01044,0.08353 -0.0119,0.169204 0,0.252538 0.0094,0.06588 0.05488,0.123368 0.06313,0.189403 0.01305,0.104412 -0.01162,0.211092 0,0.315673 0.0096,0.08624 0.05237,0.166438 0.06314,0.252538 0.01044,0.08353 -0.0084,0.168777 0,0.252538 0.01274,0.127376 0.04209,0.252538 0.06313,0.378808 0.02105,0.126269 0.04024,0.252861 0.06314,0.378807 0.0192,0.105577 0.05422,0.208735 0.06313,0.315672 0.01223,0.146805 -0.01049,0.295003 0,0.441942 0.06147,0.860514 0.0023,0.06935 0.252539,0.757615 0.04375,0.120303 0.04024,0.252861 0.06313,0.378807 0.0192,0.105577 0.0323,0.21289 0.06314,0.315672 0.20062,0.668736 0.02552,-0.01209 0.315672,0.568211 0.03881,0.07761 0.02009,0.177201 0.06314,0.252538 0.0443,0.07752 0.137507,0.116749 0.189403,0.189404 0.0547,0.07659 0.08418,0.168359 0.126269,0.252538 0.08132,0.162638 0.06243,0.137905 0.189404,0.315673 0.06116,0.08562 0.133635,0.163308 0.189404,0.252538 0.160203,0.320406 0.07406,0.174229 0.252538,0.441942 0.08418,0.126269 0.17446,0.248677 0.252538,0.378807 0.02421,0.04035 0.03703,0.08711 0.06314,0.126269 0.01651,0.02476 0.05372,0.0349 0.06313,0.06313 0.01331,0.03993 0,0.08418 0,0.12627 0,0.06313 -0.0089,0.126903 0,0.189403 0.01227,0.0859 0.04887,0.166949 0.06314,0.252538 0.0069,0.04152 -0.01021,0.08544 0,0.126269 0.112479,0.44992 0.03229,-0.37306 0.126269,0.378808 0.01044,0.08353 0,0.168358 0,0.252538 0,0.105224 0,0.210448 0,0.315672 0,0.357763 0,0.715525 0,1.073287 0,0.294628 0,0.589256 0,0.883884 0,0.147314 0.0113,0.295062 0,0.441942 -0.0098,0.127633 -0.049,0.251579 -0.06314,0.378807 -0.007,0.06275 0.01814,0.128932 0,0.189403 -0.04605,0.153514 -0.138721,0.289894 -0.189403,0.441942 -0.229358,0.688074 0.05431,-0.01902 -0.06314,0.568211 -0.0261,0.130515 -0.08078,0.253721 -0.126269,0.378807 -0.03873,0.106507 -0.104043,0.204544 -0.126269,0.315673 -0.02064,0.103181 0.0095,0.21088 0,0.315673 -0.01159,0.127485 -0.049,0.251579 -0.06314,0.378807 -0.007,0.06275 0.007,0.126655 0,0.189403 -0.01414,0.127228 -0.03435,0.254075 -0.06313,0.378808 -0.05396,0.233803 -0.15547,0.456943 -0.189404,0.694479 -0.0089,0.0625 0,0.126269 0,0.189404 0,0.189404 0,0.378807 0,0.568211 0,0.08418 0.0084,0.168776 0,0.252538 0.02227,0.222792 -0.09965,0.418386 -0.126269,0.631345 -0.01044,0.08353 0.01826,0.170364 0,0.252538 -0.02458,0.110632 -0.09878,0.205727 -0.126269,0.315673 -0.01531,0.06125 0.01038,0.127128 0,0.189404 -0.01094,0.06564 -0.04209,0.126269 -0.06313,0.189403 -0.02104,0.08418 -0.05086,0.16664 -0.06313,0.252538 -0.0089,0.0625 0.01038,0.127129 0,0.189404 -0.02188,0.131288 -0.100166,0.248293 -0.126269,0.378807 -0.0083,0.04127 0.01882,0.08862 0,0.126269 -0.02662,0.05324 -0.09965,0.07303 -0.126269,0.126269 -0.01882,0.03765 0.01021,0.08544 0,0.126269 -0.01141,0.04565 -0.04566,0.08258 -0.06314,0.12627 -0.02472,0.06179 -0.03842,0.127613 -0.06313,0.189403 -0.01748,0.04369 -0.04825,0.08163 -0.06314,0.126269 -0.02744,0.08232 -0.02895,0.172784 -0.06313,0.252538 -0.02989,0.06974 -0.09963,0.118357 -0.126269,0.189404 -0.03768,0.100476 -0.0063,0.224676 -0.06314,0.315673 -0.05577,0.08923 -0.163308,0.133635 -0.252538,0.189403 -0.266112,0.16632 -0.649966,0.289692 -0.947018,0.378807 -0.08311,0.02493 -0.170221,0.0357 -0.252538,0.06314 -0.215029,0.07168 -0.412672,0.1929 -0.631346,0.252538 -0.1235,0.03368 -0.252861,0.04023 -0.378807,0.06313 -0.0031,5.69e-4 -0.630821,0.126221 -0.631345,0.126269 -0.125751,0.01143 -0.252538,0 -0.378807,0 -0.315673,0 -0.631346,0 -0.947018,0 -0.168359,0 -0.337008,-0.0099 -0.505077,0 -0.19024,0.01119 -0.378063,0.05046 -0.56821,0.06313 -0.12599,0.0084 -0.252539,0 -0.378808,0 -0.315672,0 -0.631345,0 -0.947018,0 -0.126269,0 -0.253056,-0.01143 -0.378807,0 -0.106867,0.0097 -0.208805,0.05342 -0.315672,0.06313 -0.125751,0.01143 -0.252539,0 -0.378808,0 -0.189403,0 -0.378807,0 -0.56821,0 -0.06314,0 -0.12627,0 -0.189404,0 -0.06313,0 -0.128698,0.01734 -0.189404,0 -0.09049,-0.02586 -0.164415,-0.09322 -0.252538,-0.126269 -0.08125,-0.03047 -0.174928,-0.02433 -0.252538,-0.06313 -0.05324,-0.02662 -0.08418,-0.08418 -0.126269,-0.126269 -0.06313,-0.06313 -0.121613,-0.131297 -0.189404,-0.189403 -0.07989,-0.06848 -0.171702,-0.122041 -0.252538,-0.189404 -0.04573,-0.03811 -0.08418,-0.08418 -0.126269,-0.126269 -0.105224,-0.105224 -0.210448,-0.210449 -0.315673,-0.315673 -0.06313,-0.06313 -0.116748,-0.137507 -0.189403,-0.189403 -0.145655,-0.10404 -0.363149,-0.11869 -0.441942,-0.315673 -0.05527,-0.138166 -0.03395,-0.296022 -0.06313,-0.441942 -0.01305,-0.06526 -0.05219,-0.123759 -0.06314,-0.189403 -0.01038,-0.06228 0.007,-0.126656 0,-0.189404 -0.01414,-0.127228 -0.05332,-0.251174 -0.06313,-0.378807 -0.0113,-0.14688 0.01334,-0.295233 0,-0.441942 -0.0079,-0.08641 -0.0545,-0.166199 -0.06314,-0.252538 -0.02513,-0.251285 0.02286,-0.506114 0,-0.757615 -0.0097,-0.106867 -0.05422,-0.208735 -0.06314,-0.315672 0,-1.072578 0.02422,0.140132 -0.06313,-0.820749 -0.03858,-0.424405 0.0463,-0.231493 0,-0.69448 -0.0086,-0.08634 -0.04209,-0.168359 -0.06313,-0.252538 -0.197368,-0.789475 0.05488,0.192074 -0.126269,-0.441942 -0.0775,-0.271242 -0.01854,-0.228357 -0.189403,-0.441942 -0.03718,-0.04648 -0.09965,-0.07303 -0.126269,-0.126269 -0.01882,-0.03765 0.01331,-0.08634 0,-0.126269 -0.0094,-0.02823 -0.04209,-0.04209 -0.06313,-0.06313 -0.02105,-0.02105 -0.0349,-0.05372 -0.06313,-0.06313 -0.03993,-0.01331 -0.08418,0 -0.126269,0 -0.02105,0 -0.04431,-0.0094 -0.06314,0 -0.02662,0.01331 -0.0349,0.05372 -0.06314,0.06313 -0.03993,0.01331 -0.08418,0 -0.126269,0 -0.04209,0 -0.08418,0 -0.126269,0 -0.105224,0 -0.212145,0.01882 -0.315672,0 -0.130953,-0.02381 -0.251594,-0.08713 -0.378808,-0.126269 -0.146433,-0.04506 -0.291204,-0.09886 -0.441941,-0.126269 -0.988915,-0.179803 1.079697,0.432685 -0.820749,-0.12627 -0.172501,-0.05073 -0.328349,-0.156267 -0.505077,-0.189403 -0.165475,-0.03103 -0.33787,0.01967 -0.505076,0 -0.192695,-0.02267 -0.376827,-0.09437 -0.568211,-0.126269 -0.187976,-0.03133 -0.378947,-0.04087 -0.56821,-0.06314 -0.168507,-0.01982 -0.335839,-0.05105 -0.505077,-0.06313 -0.125948,-0.009 -0.253056,0.01143 -0.378807,0 -0.106867,-0.0097 -0.208735,-0.05422 -0.315673,-0.06314 -0.146805,-0.01223 -0.295136,0.01223 -0.441941,0 -0.213875,-0.01782 -0.418042,-0.102568 -0.631346,-0.126269 -0.08366,-0.0093 -0.169204,0.0119 -0.252538,0 -0.06588,-0.0094 -0.123523,-0.05372 -0.189403,-0.06313 -0.08333,-0.0119 -0.168874,0.0093 -0.252539,0 -0.106651,-0.01185 -0.209443,-0.04796 -0.315672,-0.06313 -0.04167,-0.006 -0.08418,0 -0.126269,0 -0.210449,0 -0.420897,0 -0.631346,0 -0.631345,0 -1.26269,0 -1.894036,0 -0.547166,0 -1.094332,0 -1.641498,0 -0.168358,0 -0.336717,0 -0.505076,0 -0.126269,0 -0.253165,0.01256 -0.378807,0 -0.08634,-0.0086 -0.166438,-0.05237 -0.252538,-0.06313 -0.08353,-0.01044 -0.168874,0.0093 -0.252538,0 -0.106652,-0.01185 -0.208806,-0.05342 -0.315673,-0.06313 -0.337162,-0.03065 -0.748765,0.06667 -1.073287,-0.06314 -0.872203,-0.348881 0.49642,-0.05542 -0.631345,-0.315672 -0.144999,-0.03346 -0.294628,-0.04209 -0.441942,-0.06314 -0.147314,-0.02105 -0.293571,-0.05172 -0.441942,-0.06313 -0.125897,-0.0097 -0.254006,0.0192 -0.378807,0 -0.361559,-0.05562 -0.546421,-0.18588 -0.883884,-0.315673 -0.255372,-0.09822 -0.451873,-0.131235 -0.694479,-0.252538 -0.109757,-0.05488 -0.203538,-0.139566 -0.315673,-0.189404 -0.572107,-0.254269 0.101812,0.182832 -0.568211,-0.189403 -0.09198,-0.0511 -0.166914,-0.128244 -0.252538,-0.189404 -0.06175,-0.0441 -0.127659,-0.08217 -0.189404,-0.126269 -0.08562,-0.06116 -0.166335,-0.129061 -0.252538,-0.189404 -0.124324,-0.08703 -0.248677,-0.17446 -0.378807,-0.252538 -0.125027,-0.07502 -0.481194,-0.216225 -0.568211,-0.315672 -0.07463,-0.08529 -0.07559,-0.214308 -0.126269,-0.315673 -0.05488,-0.109757 -0.119033,-0.215144 -0.189403,-0.315673 C 11.04124,34.487795 10.783526,34.192024 10.606602,34.047268 10.489149,33.95117 10.329877,33.907021 10.227795,33.79473 10.113663,33.669185 10.06255,33.498278 9.9752564,33.352788 9.8731101,33.182544 9.748372,33.025288 9.6595837,32.847712 9.2984372,32.125419 9.8075449,32.821764 9.3439111,32.026963 9.2760131,31.910566 9.1755523,31.816514 9.0913729,31.71129 9.0071935,31.606066 8.9241653,31.49991 8.8388348,31.395618 8.7571765,31.295813 8.5210456,31.073595 8.4600276,30.890541 8.4325885,30.808224 8.4273601,30.719248 8.3968931,30.638003 8.3638469,30.54988 8.2784398,30.479255 8.270624,30.385465 8.2565337,30.216382 8.3467715,30.049558 8.3337585,29.880389 8.3264302,29.785121 8.1303698,29.410477 8.0812204,29.312178 8.0180858,29.185909 7.9515168,29.061299 7.8918168,28.933371 7.8041663,28.745548 7.7368164,28.548043 7.6392786,28.36516 7.5678638,28.231257 7.468804,28.114007 7.3867405,27.986353 7.2793803,27.819348 7.1901898,27.640106 7.0710678,27.481276 6.9996393,27.386038 6.8976206,27.317716 6.8185297,27.228738 6.6912212,27.085516 6.4977264,26.822045 6.376588,26.660527 6.2503189,26.492169 6.1201014,26.3267 5.9977808,26.155451 5.9536774,26.093706 5.915615,26.027792 5.8715117,25.966048 5.8083771,25.881868 5.7452426,25.797689 5.6821081,25.713509 5.6400184,25.67142 5.5930232,25.633721 5.555839,25.58724 5.5084382,25.527989 5.478146,25.456128 5.4295699,25.397837 5.3724106,25.329246 5.3033009,25.271568 5.2401663,25.208433 5.1770318,25.145299 5.1250529,25.068556 5.0507627,25.01903 4.9953901,24.982114 4.9208829,24.985657 4.8613591,24.955895 4.0012411,24.525836 5.033343,25.000056 4.2931483,24.577088 4.2353671,24.54407 4.1649135,24.540168 4.1037447,24.513953 4.017239,24.476879 3.9377123,24.424758 3.8512066,24.387684 3.728869,24.335254 3.595979,24.310847 3.4723994,24.261415 c -0.04209,-0.02105 -0.084179,-0.04209 -0.1262691,-0.06313 -0.021045,-0.02105 -0.036515,-0.04983 -0.063134,-0.06314 -0.059524,-0.02976 -0.1298798,-0.03337 -0.1894036,-0.06313 -0.02662,-0.01331 -0.04209,-0.04209 -0.063135,-0.06314 -0.063134,-0.06313 -0.1208124,-0.132244 -0.1894036,-0.189404 -0.058291,-0.04858 -0.1287009,-0.08074 -0.1894036,-0.126269 -0.02381,-0.01786 -0.036515,-0.04982 -0.063134,-0.06313 -0.059524,-0.02976 -0.1276138,-0.03842 -0.1894036,-0.06313 -0.043692,-0.01748 -0.084179,-0.04209 -0.1262691,-0.06313 -0.04209,-0.02105 -0.087115,-0.03703 -0.126269,-0.06313 -0.024763,-0.01651 -0.038371,-0.04662 -0.063135,-0.06313 -0.039154,-0.0261 -0.088623,-0.0349 -0.126269,-0.06313 -0.087958,-0.06597 -0.1728875,-0.172887 -0.2525382,-0.252538 -0.04209,-0.04209 -0.084179,-0.08418 -0.126269,-0.126269 -0.04209,-0.04209 -0.093251,-0.07674 -0.1262691,-0.126269 -0.011674,-0.01751 0.00941,-0.04431 0,-0.06313 -0.01331,-0.02662 -0.04209,-0.04209 -0.063134,-0.06313 -0.021045,-0.04209 -0.045658,-0.08258 -0.063135,-0.126269 -0.024716,-0.06179 -0.033373,-0.12988 -0.063134,-0.189404 -0.01331,-0.02662 -0.049825,-0.03652 -0.063135,-0.06313 -0.00941,-0.01882 0.00941,-0.04431 0,-0.06314 -0.144471,-0.288942 0.026168,0.267906 -0.1262691,-0.189404 -0.016328,-0.04898 0.00892,-0.27999 0,-0.315672 -0.0780155,-0.312062 -0.063135,0.132123 -0.063135,-0.126269"
       id="path2997"
       inkscape:connector-curvature="0"
       transform="translate(0,1004.3622)" />
  </g>
</svg>
