<?xml version="1.0" encoding="UTF-8" standalone="no"?>
<!-- Created with Inkscape (http://www.inkscape.org/) -->

<svg
   xmlns:dc="http://purl.org/dc/elements/1.1/"
   xmlns:cc="http://creativecommons.org/ns#"
   xmlns:rdf="http://www.w3.org/1999/02/22-rdf-syntax-ns#"
   xmlns:svg="http://www.w3.org/2000/svg"
   xmlns="http://www.w3.org/2000/svg"
   xmlns:sodipodi="http://sodipodi.sourceforge.net/DTD/sodipodi-0.dtd"
   xmlns:inkscape="http://www.inkscape.org/namespaces/inkscape"
   width="48"
   height="48"
   id="svg2"
   version="1.1"
   inkscape:version="0.48.2 r9819"
   sodipodi:docname="startRecord.svg"
   inkscape:export-filename="/home/umod47/_progs/svn/skirl/trunk/complex/gui/images/startRecord.png"
   inkscape:export-xdpi="90"
   inkscape:export-ydpi="90">
  <defs
     id="defs4">
    <marker
       inkscape:stockid="Arrow2Lend"
       orient="auto"
       refY="0.0"
       refX="0.0"
       id="Arrow2Lend"
       style="overflow:visible;">
      <path
         id="path4097"
         style="font-size:12.0;fill-rule:evenodd;stroke-width:0.62500000;stroke-linejoin:round;"
         d="M 8.7185878,4.0337352 L -2.2072895,0.016013256 L 8.7185884,-4.0017078 C 6.9730900,-1.6296469 6.9831476,1.6157441 8.7185878,4.0337352 z "
         transform="scale(1.1) rotate(180) translate(1,0)" />
    </marker>
    <marker
       inkscape:stockid="Tail"
       orient="auto"
       refY="0.0"
       refX="0.0"
       id="Tail"
       style="overflow:visible">
      <g
         id="g4112"
         transform="scale(-1.2)">
        <path
           id="path4114"
           d="M -3.8048674,-3.9585227 L 0.54352094,0"
           style="fill:none;fill-rule:evenodd;stroke:#000000;stroke-width:0.8;marker-start:none;marker-end:none;stroke-linecap:round" />
        <path
           id="path4116"
           d="M -1.2866832,-3.9585227 L 3.0617053,0"
           style="fill:none;fill-rule:evenodd;stroke:#000000;stroke-width:0.8;marker-start:none;marker-end:none;stroke-linecap:round" />
        <path
           id="path4118"
           d="M 1.3053582,-3.9585227 L 5.6537466,0"
           style="fill:none;fill-rule:evenodd;stroke:#000000;stroke-width:0.8;marker-start:none;marker-end:none;stroke-linecap:round" />
        <path
           id="path4120"
           d="M -3.8048674,4.1775838 L 0.54352094,0.21974226"
           style="fill:none;fill-rule:evenodd;stroke:#000000;stroke-width:0.8;marker-start:none;marker-end:none;stroke-linecap:round" />
        <path
           id="path4122"
           d="M -1.2866832,4.1775838 L 3.0617053,0.21974226"
           style="fill:none;fill-rule:evenodd;stroke:#000000;stroke-width:0.8;marker-start:none;marker-end:none;stroke-linecap:round" />
        <path
           id="path4124"
           d="M 1.3053582,4.1775838 L 5.6537466,0.21974226"
           style="fill:none;fill-rule:evenodd;stroke:#000000;stroke-width:0.8;marker-start:none;marker-end:none;stroke-linecap:round" />
      </g>
    </marker>
    <inkscape:perspective
       sodipodi:type="inkscape:persp3d"
       inkscape:vp_x="-296.51931 : 110.28622 : 1"
       inkscape:vp_y="0 : 1537.2745 : 0"
       inkscape:vp_z="137.09173 : 111.52304 : 1"
       inkscape:persp3d-origin="12.86413 : 12.633889 : 1"
       id="perspective2985" />
  </defs>
  <sodipodi:namedview
     id="base"
     pagecolor="#ffffff"
     bordercolor="#666666"
     borderopacity="1.0"
     inkscape:pageopacity="0.0"
     inkscape:pageshadow="2"
     inkscape:zoom="1.979899"
     inkscape:cx="-256.35867"
     inkscape:cy="82.117259"
     inkscape:document-units="px"
     inkscape:current-layer="layer1"
     showgrid="false"
     showguides="true"
     inkscape:guide-bbox="true"
     inkscape:window-width="1920"
     inkscape:window-height="1119"
     inkscape:window-x="0"
     inkscape:window-y="30"
     inkscape:window-maximized="1" />
  <metadata
     id="metadata7">
    <rdf:RDF>
      <cc:Work
         rdf:about="">
        <dc:format>image/svg+xml</dc:format>
        <dc:type
           rdf:resource="http://purl.org/dc/dcmitype/StillImage" />
        <dc:title></dc:title>
      </cc:Work>
    </rdf:RDF>
  </metadata>
  <g
     inkscape:label="Layer 1"
     inkscape:groupmode="layer"
     id="layer1"
     transform="translate(0,-1004.3622)">
    <path
       inkscape:connector-curvature="0"
       id="path3063"
       style="fill:#afafde;fill-rule:evenodd;stroke:none"
       d="m 7.0162048,1042.6778 22.0114392,7.2953 17.714606,-17.89 -19.622065,-5.1451 z" />
    <path
       inkscape:connector-curvature="0"
       id="path3065"
       style="fill:#353564;fill-rule:evenodd;stroke:none"
       d="m 7.0162048,1038.3013 0,4.3765 20.1039802,-15.7398 0,-3.7001 z" />
    <path
       inkscape:connector-curvature="0"
       id="path3067"
       style="fill:#e9e9ff;fill-rule:evenodd;stroke:none"
       d="m 27.120185,1023.2379 19.622065,4.9208 0,3.9244 -19.622065,-5.1451 z" />
    <path
       inkscape:connector-curvature="0"
       id="path3069"
       style="fill:#000000;fill-rule:evenodd;stroke:none"
       d="m 7.0162048,1038.3013 22.0114392,6.9779 17.714606,-17.1205 -19.622065,-4.9208 z" />
    <path
       inkscape:connector-curvature="0"
       id="path3071"
       style="fill:#cccccc;fill-rule:evenodd;stroke:none"
       d="m 29.027644,1045.2792 0,4.6939 17.714606,-17.89 0,-3.9244 z" />
    <path
       inkscape:connector-curvature="0"
       id="path3073"
       style="fill:#808080;fill-rule:evenodd;stroke:none"
       d="m 7.0162048,1038.3013 22.0114392,6.9779 0,4.6939 -22.0114392,-7.2953 z" />
    <path
       sodipodi:type="arc"
       style="fill:none;stroke:none"
       id="path3057"
       sodipodi:cx="-9.4642859"
       sodipodi:cy="-12.267858"
       sodipodi:rx="38.035713"
       sodipodi:ry="41.339287"
       d="m 28.571427,-12.267858 c 0,22.831058 -17.029169,41.339287 -38.0357129,41.339287 -21.0065441,0 -38.0357131,-18.508229 -38.0357131,-41.339287 0,-22.831057 17.029169,-41.339286 38.0357131,-41.339286 21.0065439,0 38.0357129,18.508229 38.0357129,41.339286 z"
       transform="translate(0,1004.3622)" />
    <path
       sodipodi:type="arc"
       style="fill:#eeffaa;fill-opacity:1;stroke:none"
       id="path3059-9"
       sodipodi:cx="-86.339287"
       sodipodi:cy="-12"
       sodipodi:rx="5.9821424"
       sodipodi:ry="3.3928573"
       d="m -80.357144,-12 c 0,1.873823 -2.678297,3.3928573 -5.982143,3.3928573 -3.303846,0 -5.982142,-1.5190343 -5.982142,-3.3928573 0,-1.873823 2.678296,-3.392857 5.982142,-3.392857 3.303846,0 5.982143,1.519034 5.982143,3.392857 z"
       transform="matrix(1.5604763,0,0,1.5372745,164.81969,1050.3631)" />
    <path
       sodipodi:type="arc"
       style="fill:none;stroke:#000000;stroke-width:0.19369435;stroke-miterlimit:4;stroke-dasharray:none"
       id="path3059-9-2"
       sodipodi:cx="-86.339287"
       sodipodi:cy="-12"
       sodipodi:rx="5.9821424"
       sodipodi:ry="3.3928573"
       d="m -80.357144,-12 c 0,1.873823 -2.678297,3.3928573 -5.982143,3.3928573 -3.303846,0 -5.982142,-1.5190343 -5.982142,-3.3928573 0,-1.873823 2.678296,-3.392857 5.982142,-3.392857 3.303846,0 5.982143,1.519034 5.982143,3.392857 z"
       transform="matrix(1.5604763,0,0,1.5372745,164.99828,1049.4702)" />
    <path
       sodipodi:type="arc"
       style="fill:#eeffaa;fill-opacity:1;stroke:none"
       id="path3059"
       sodipodi:cx="-86.339287"
       sodipodi:cy="-12"
       sodipodi:rx="5.9821424"
       sodipodi:ry="3.3928573"
       d="m -80.357144,-12 c 0,1.873823 -2.678297,3.3928573 -5.982143,3.3928573 -3.303846,0 -5.982142,-1.5190343 -5.982142,-3.3928573 0,-1.873823 2.678296,-3.392857 5.982142,-3.392857 3.303846,0 5.982143,1.519034 5.982143,3.392857 z"
       transform="matrix(1.5604763,0,0,1.5372745,165.00277,1048.6866)" />
    <path
       style="fill:#cccccc;stroke:#cccccc;stroke-width:1px;stroke-linecap:butt;stroke-linejoin:miter;stroke-opacity:1"
       d="m 16.428571,1035.9337 11.696428,-6.4286 -9.910714,8.125 z"
       id="path3081"
       inkscape:connector-curvature="0"
       sodipodi:nodetypes="cccc" />
    <path
       sodipodi:type="arc"
       style="fill:#ff0000;stroke:#ff0000;stroke-width:0.30000001;stroke-miterlimit:4;stroke-opacity:1;stroke-dasharray:none"
       id="path3889"
       sodipodi:cx="9.8660717"
       sodipodi:cy="11.4375"
       sodipodi:rx="8.6160717"
       sodipodi:ry="8.4375"
       d="m 18.481062,11.571165 c -0.07538,4.659318 -3.993556,8.376597 -8.751484,8.302776 C 4.9716501,19.80012 1.1756978,15.963153 1.2510812,11.303835 1.3264646,6.6445174 5.2446375,2.9272378 10.002565,3.0010588 c 4.754706,0.073771 8.549402,3.9057938 8.478624,8.5620242"
       transform="matrix(1.2748646,0,0,1.2912638,0.056024,1002.9952)"
       sodipodi:start="0.015842417"
       sodipodi:end="6.2980698"
       sodipodi:open="true" />
    <path
       style="fill:none;stroke:#008000;stroke-width:1.57099998000000007;stroke-linecap:butt;stroke-linejoin:miter;stroke-miterlimit:4;stroke-opacity:1;stroke-dasharray:none"
       d="m 30.029709,1007.1349 0.178571,19.1072"
       id="path4721"
       inkscape:connector-curvature="0" />
    <path
       style="fill:none;stroke:#008000;stroke-width:1.57099998000000007;stroke-linecap:butt;stroke-linejoin:miter;stroke-miterlimit:4;stroke-opacity:1;stroke-dasharray:none"
       d="m 26.670526,1022.3335 5.103895,9.5702 4.787285,-9.5566"
       id="path4723"
       inkscape:connector-curvature="0"
       sodipodi:nodetypes="ccc" />
    <path
       style="fill:none;stroke:#008000;stroke-width:1.57099998000000007;stroke-linecap:butt;stroke-linejoin:miter;stroke-miterlimit:4;stroke-opacity:1;stroke-dasharray:none"
       d="m 33.29088,1007.0988 0.178572,19.1073"
       id="path4721-4"
       inkscape:connector-curvature="0" />
  </g>
</svg>
